<?xml version="1.0" standalone="no"?>
<!DOCTYPE svg PUBLIC "-//W3C//DTD SVG 1.0//EN" "http://www.w3.org/TR/2001/REC-SVG-20010904/DTD/svg10.dtd">
<svg xmlns="http://www.w3.org/2000/svg" xmlns:xlink="http://www.w3.org/1999/xlink" id="body_1" width="32" height="32">

<g transform="matrix(0.2604167 0 0 0.2604167 2.2721353 -0)">
    <path d="M5.35 41.82L71.47 41.82C 74.41405 41.836334 76.798164 44.216 76.82 47.16L76.82 47.16L76.82 52.51C 89.53 52.28 98.07 58.23 102.35 66.25C 104.3233 69.97061 105.37927 74.10879 105.43 78.32C 105.49319 82.53512 104.568504 86.70646 102.73 90.5C 98.62 98.93 89.98 105.5 76.82001 105.67L76.82001 105.67L76.82001 109.13C 76.82406 112.76256 75.38527 116.24803 72.82001 118.82C 70.2468 121.3834 66.76214 122.82185 63.13001 122.82L63.13001 122.82L13.75 122.82C 6.1884785 122.79826 0.054800987 116.69135 0 109.13L0 109.13L0 47.129997C -2.3841858E-06 45.71201 0.56397533 44.35224 1.5675836 43.35051C 2.5711918 42.348778 3.932012 41.787346 5.35 41.789997L5.35 41.789997L5.35 41.82zM52.81 67C 55.510002 69.7 55.480003 82.16 48.4 89.24C 41.32 96.31999 33.050003 98.659996 27.480001 94.74C 36.300003 89.49 38.93 85.13 40.84 80.56C 42.75 75.99 44.29 71 52.53 66.71C 52.62 66.79 50.11 64.27 52.809998 66.97zM25.88 93.3L25.47 92.91C 20.15 87.590004 21.81 77.32001 29.17 69.97C 36.1 63.04 45.61 61.170002 51.17 65.42C 42.29 69.87 39.91 73.62 38 78.28C 36.18 82.65 34.2 88.28 25.91 93.28zM57.33 10C 56.677322 9.23282 56.378025 8.226179 56.505535 7.2270303C 56.633045 6.2278814 57.175564 5.3286724 58 4.75C 59.748646 3.4981809 62.16458 3.793655 63.56 5.43C 66.94 9.549999 65.61 13.74 64.07 18.55C 62.78 22.63 61.26 27.38 64.3 31.88C 64.851234 32.70847 65.03604 33.727737 64.81076 34.697002C 64.58548 35.666267 63.9701 36.499554 63.11 37C 61.263474 38.107555 58.87551 37.60643 57.63 35.85C 52.63 28.469997 54.73 21.969997 56.5 16.39C 57.42 13.5199995 58.21 11.029999 57.33 9.949999zM35.62 6C 34.97864 5.230245 34.690273 4.2264094 34.82531 3.2336242C 34.960342 2.2408388 35.50635 1.3504908 36.33 0.78C 38.074883 -0.47918177 40.494198 -0.18764544 41.890003 1.45C 45.270004 5.5699997 43.890003 9.76 42.410004 14.57C 41.110004 18.65 39.600002 23.4 42.630005 27.9C 43.194206 28.733902 43.3823 29.766403 43.14841 30.745695C 42.914524 31.724987 42.28015 32.561054 41.400005 33.05C 39.553474 34.157555 37.165512 33.65643 35.920006 31.9C 31 24.53 33 18 34.8 12.44C 35.71 9.58 36.5 7.0799994 35.62 5.9999995zM13.91 10C 13.272213 9.226099 12.987202 8.220703 13.123971 7.2272296C 13.26074 6.233755 13.80682 5.3427744 14.63 4.77C 16.378647 3.51818 18.794582 3.8136544 20.19 5.45C 23.560001 9.57 22.19 13.76 20.7 18.57C 19.400002 22.65 17.890001 27.4 20.92 31.9C 21.464985 32.7299 21.643036 33.748028 21.412048 34.71363C 21.18106 35.67923 20.561548 36.50657 19.7 37C 17.853474 38.107555 15.465509 37.60643 14.220001 35.85C 9.220001 28.469997 11.310001 21.969997 13.090001 16.39C 14.000001 13.5199995 14.800001 11.029999 13.910001 9.949999zM76.82 62L76.82 96.2C 85.56 96 91.2 91.84 93.82 86.49C 95.03314 83.97869 95.64268 81.21864 95.6 78.43C 95.57066 75.6815 94.88495 72.97981 93.6 70.55C 90.92 65.55 85.35 61.810005 76.84 61.99zM68.87 49.77L8 49.77L8 109.130005C 8.021802 112.32418 10.605822 114.9082 13.8 114.93001L13.8 114.93001L63.07 114.93001C 64.60499 114.92891 66.07649 114.31728 67.16 113.23001C 68.249146 112.14775 68.861115 110.67543 68.86 109.140015L68.86 109.140015L68.86 49.77z" stroke="none" fill="#000000" fill-rule="nonzero" />
</g>
</svg>